<svg width="14" height="14" viewBox="0 0 14 14" fill="none" xmlns="http://www.w3.org/2000/svg">
<path d="M12.7534 11.2496H12.5632C13.495 10.035 14 8.55646 14 7C14 5.13023 13.2719 3.37239 11.9498 2.05023C10.6276 0.728137 8.86975 0 6.99998 0C6.05514 0 5.13838 0.185145 4.27514 0.550266C4.0665 0.638504 3.96894 0.879184 4.05715 1.08779C4.14542 1.29642 4.38593 1.39398 4.5947 1.30577C5.35628 0.983637 6.16552 0.820312 6.99998 0.820312C10.4075 0.820312 13.1797 3.5925 13.1797 7C13.1797 8.28398 12.7906 9.50808 12.0685 10.5379C12.054 10.3245 11.8768 10.1558 11.6597 10.1558C11.4332 10.1558 11.2496 10.3395 11.2496 10.566V11.6597C11.2496 11.8862 11.4332 12.0699 11.6597 12.0699H12.7534C12.98 12.0699 13.1636 11.8862 13.1636 11.6597C13.1636 11.4332 12.98 11.2496 12.7534 11.2496Z" fill="#5F6A73"/>
<path d="M9.40527 12.6943C8.64369 13.0164 7.83445 13.1797 7 13.1797C3.5925 13.1797 0.820312 10.4076 0.820312 7.00006C0.820312 5.71627 1.20958 4.49253 1.93156 3.46282C1.94638 3.67588 2.12346 3.84424 2.34027 3.84424C2.56679 3.84424 2.75043 3.6606 2.75043 3.43408V2.34033C2.75043 2.11382 2.56679 1.93018 2.34027 1.93018H1.24652C1.02 1.93018 0.836363 2.11382 0.836363 2.34033C0.836363 2.56685 1.02 2.75049 1.24652 2.75049H1.43757C0.505531 3.96502 0 5.44346 0 7.00006C0 8.86983 0.728137 10.6277 2.05023 11.9498C3.37239 13.2719 5.13023 14.0001 7 14.0001C7.94484 14.0001 8.86159 13.8149 9.72483 13.4498C9.93347 13.3616 10.031 13.1209 9.94282 12.9123C9.85458 12.7036 9.61398 12.606 9.40527 12.6943Z" fill="#5F6A73"/>
<path d="M10.6346 8.89443C10.7462 8.68107 10.8384 8.4592 10.9104 8.23047H11.375C11.6015 8.23047 11.7852 8.04683 11.7852 7.82031V6.17969C11.7852 5.95317 11.6015 5.76953 11.375 5.76953H10.9104C10.8384 5.5408 10.7462 5.31893 10.6346 5.10557L10.9637 4.77649C11.1238 4.61631 11.1238 4.35663 10.9637 4.19645L9.80355 3.03633C9.6434 2.87615 9.38369 2.87615 9.22351 3.03633L8.89443 3.36541C8.68109 3.2538 8.45917 3.16159 8.23047 3.08962V2.625C8.23047 2.39848 8.04683 2.21484 7.82031 2.21484H6.17969C5.95317 2.21484 5.76953 2.39848 5.76953 2.625V3.08962C5.54083 3.16162 5.31891 3.2538 5.10557 3.36541L4.77649 3.03633C4.6996 2.95941 4.59525 2.91618 4.48648 2.91618C4.37771 2.91618 4.27336 2.95941 4.19647 3.03633L3.03639 4.19645C2.87621 4.35663 2.87621 4.61631 3.03639 4.77649L3.36544 5.10557C3.2538 5.31893 3.16165 5.5408 3.08965 5.76956H2.625C2.39848 5.76956 2.21484 5.9532 2.21484 6.17972V7.82034C2.21484 8.04686 2.39848 8.2305 2.625 8.2305H3.08962C3.16162 8.45925 3.25377 8.68112 3.36541 8.89448L3.03636 9.22354C2.87618 9.38372 2.87618 9.6434 3.03636 9.80358L4.19645 10.9637C4.27334 11.0406 4.37768 11.0838 4.48645 11.0838C4.59523 11.0838 4.69957 11.0406 4.77646 10.9637L5.10554 10.6346C5.31888 10.7462 5.5408 10.8384 5.7695 10.9104V11.375C5.7695 11.6015 5.95314 11.7852 6.17966 11.7852H7.82028C8.0468 11.7852 8.23044 11.6015 8.23044 11.375V10.9104C8.45917 10.8384 8.68104 10.7462 8.8944 10.6346L9.22348 10.9637C9.38364 11.1238 9.64335 11.1238 9.80353 10.9637L10.9636 9.80355C11.1238 9.64337 11.1238 9.38369 10.9636 9.22351L10.6346 8.89443ZM7 9.1875C5.79381 9.1875 4.8125 8.20619 4.8125 7C4.8125 5.79381 5.79381 4.8125 7 4.8125C8.20619 4.8125 9.1875 5.79381 9.1875 7C9.1875 8.20619 8.20619 9.1875 7 9.1875Z" fill="#5F6A73"/>
</svg>
