<svg class="svg-icon" style="width: 1em; height: 1em;vertical-align: middle;fill: currentColor;overflow: hidden;" viewBox="0 0 1024 1024" version="1.1" xmlns="http://www.w3.org/2000/svg"><path d="M174.44 215.38l351.12 136.18-350.88 136.1c-36.78 12.06-55.76 48.78-42.4 82l24.18 60.16c13.36 33.22 53.98 50.38 90.76 38.3L850.04 428.4c27.54-9.04 45.96-33.22 45.96-60.34v-31.92c0-27.12-18.42-51.3-45.96-60.34L246.6 35.84c-36.58-12-77.02 5.06-90.3 38.12L132.24 133.8c-13.28 33.06 5.62 69.58 42.2 81.58zM912 800H112c-26.5 0-48 21.48-48 48v96c0 26.5 21.5 48 48 48h800c26.5 0 48-21.5 48-48v-96c0-26.52-21.5-48-48-48z" fill="" /></svg>