<svg class="svg-icon" style="width: 1em; height: 1em;vertical-align: middle;fill: currentColor;overflow: hidden;" viewBox="0 0 1024 1024" version="1.1" xmlns="http://www.w3.org/2000/svg"><path d="M173.96 428.4l602.82 239.74c36.78 12.06 77.42-5.08 90.76-38.3l24.18-60.16c13.36-33.22-5.64-69.94-42.42-82l-350.88-136.1 351.12-136.18c36.58-12 55.48-48.54 42.2-81.58l-24.06-59.84c-13.28-33.06-53.72-50.12-90.3-38.12L173.96 275.78C146.42 284.82 128 309 128 336.14v31.92c0 27.12 18.42 51.3 45.96 60.34zM912 800H112c-26.5 0-48 21.48-48 48v96c0 26.5 21.5 48 48 48h800c26.5 0 48-21.5 48-48v-96c0-26.52-21.5-48-48-48z" fill="" /></svg>