<svg width="14" height="14" viewBox="0 0 14 14" fill="none" xmlns="http://www.w3.org/2000/svg">
<path d="M11.794 0.546106C11.6735 0.526497 11.5499 0.541957 11.438 0.590643C11.3261 0.639328 11.145 0.754719 11.2602 1.18486L11.5867 2.40329C10.8418 1.88823 8.93301 0.926562 8.04065 0.772045C7.1483 0.617528 6.23301 0.659017 5.35829 0.893632C4.23077 1.19463 3.20773 1.79988 2.40106 2.6432C1.59439 3.48651 1.03515 4.53541 0.784498 5.67518C0.53385 6.81495 0.601447 8.0017 0.979897 9.10563C1.35835 10.2095 2.03308 11.1881 2.93029 11.9344C3.82751 12.6807 4.91266 13.1658 6.06706 13.3368C7.22147 13.5079 8.40067 13.3581 9.47571 12.9041C10.5508 12.45 11.4802 11.709 12.1625 10.7622C12.8448 9.81548 13.2535 8.6993 13.3441 7.53581C13.3566 7.36734 13.3017 7.2008 13.1914 7.07282C13.0811 6.94484 12.9245 6.86591 12.7561 6.85339C12.5876 6.84087 12.421 6.89579 12.2931 7.00607C12.1651 7.11634 12.0862 7.27294 12.0736 7.44141C12.0004 8.37208 11.6728 9.2647 11.1264 10.0216C10.5801 10.7786 9.83611 11.3708 8.97588 11.7334C8.11565 12.096 7.17227 12.2151 6.24891 12.0777C5.32554 11.9402 4.45775 11.5516 3.74041 10.9541C3.02307 10.3567 2.48381 9.5736 2.18161 8.69033C1.8794 7.80707 1.82588 6.85771 2.02689 5.94607C2.22791 5.03443 2.67573 4.19562 3.32137 3.52135C3.96702 2.84709 4.78563 2.36334 5.6877 2.12299C6.38962 1.9347 7.12414 1.90162 7.84014 2.02607C8.55614 2.15052 10.6201 3.0272 11.2173 3.44129L9.28543 3.95893C9.03949 4.02483 8.94682 4.25667 8.94983 4.3866C8.95285 4.51652 8.99557 4.64241 9.07225 4.74734C9.14778 4.85091 9.25283 4.92926 9.37364 4.97213C9.49445 5.01499 9.62539 5.02037 9.74931 4.98756L12.5154 4.24639C12.6784 4.20271 12.8174 4.09606 12.9018 3.94989C12.9862 3.80373 13.0091 3.63003 12.9654 3.46701L12.3066 1.00829C12.2746 0.890116 12.2093 0.783659 12.1184 0.701682C12.0275 0.619705 11.9149 0.565688 11.794 0.546106Z" fill="#5F6A73"/>
</svg>
