<svg width="14" height="14" viewBox="0 0 14 14" fill="none" xmlns="http://www.w3.org/2000/svg">
<path d="M7 0C3.12439 0 0 3.12439 0 7C0 10.8756 3.12439 14 7 14C10.8756 14 14 10.8756 14 7C14 3.12439 10.8756 0 7 0ZM10.1073 7.32439L5.44634 10.0561C5.39512 10.0902 5.30976 10.1073 5.25854 10.1073C5.20732 10.1073 5.12195 10.0902 5.07073 10.0561C4.95122 9.97073 4.88293 9.86829 4.88293 9.73171V4.28537H4.86585C4.86585 4.14878 4.95122 4.0122 5.05366 3.96098C5.1561 3.90976 5.32683 3.87561 5.44634 3.96098L10.1073 6.67561C10.2268 6.76098 10.2951 6.86341 10.2951 7C10.2951 7.13659 10.2098 7.27317 10.1073 7.32439Z" fill="#00A786"/>
</svg>
