<svg width="12" height="12" viewBox="0 0 12 12" fill="none" xmlns="http://www.w3.org/2000/svg">
<path d="M11.4014 10.3572H3.37709C3.04637 10.3572 2.77832 10.0892 2.77832 9.75844C2.77832 9.42772 3.04637 9.15967 3.37709 9.15967H11.4012C11.732 9.15967 12 9.42772 12 9.75844C12 10.0892 11.7322 10.3572 11.4014 10.3572Z" fill="#5F6A73"/>
<path d="M11.4014 6.59867H3.37709C3.04637 6.59867 2.77832 6.33062 2.77832 5.9999C2.77832 5.66917 3.04637 5.40112 3.37709 5.40112H11.4012C11.732 5.40112 12 5.66917 12 5.9999C12.0002 6.33062 11.7322 6.59867 11.4014 6.59867Z" fill="#5F6A73"/>
<path d="M11.4014 2.84037H3.37709C3.04637 2.84037 2.77832 2.57232 2.77832 2.24159C2.77832 1.91087 3.04637 1.64282 3.37709 1.64282H11.4012C11.732 1.64282 12 1.91087 12 2.24159C12 2.57232 11.7322 2.84037 11.4014 2.84037Z" fill="#5F6A73"/>
<path d="M0.804151 3.09194C1.24827 3.09194 1.6083 2.73191 1.6083 2.28779C1.6083 1.84367 1.24827 1.48364 0.804151 1.48364C0.360031 1.48364 0 1.84367 0 2.28779C0 2.73191 0.360031 3.09194 0.804151 3.09194Z" fill="#5F6A73"/>
<path d="M0.804151 6.8041C1.24827 6.8041 1.6083 6.44407 1.6083 5.99995C1.6083 5.55583 1.24827 5.1958 0.804151 5.1958C0.360031 5.1958 0 5.55583 0 5.99995C0 6.44407 0.360031 6.8041 0.804151 6.8041Z" fill="#5F6A73"/>
<path d="M0.804151 10.5163C1.24827 10.5163 1.6083 10.1562 1.6083 9.71211C1.6083 9.26799 1.24827 8.90796 0.804151 8.90796C0.360031 8.90796 0 9.26799 0 9.71211C0 10.1562 0.360031 10.5163 0.804151 10.5163Z" fill="#5F6A73"/>
</svg>
