<svg width="14" height="14" viewBox="0 0 14 14" fill="none" xmlns="http://www.w3.org/2000/svg">
<path fill-rule="evenodd" clip-rule="evenodd" d="M2.5 0C1.11929 0 0 1.11929 0 2.5V11.5C0 12.8807 1.11929 14 2.5 14H11.5C12.8807 14 14 12.8807 14 11.5V2.5C14 1.11929 12.8807 0 11.5 0H2.5ZM10.5173 8.86722H11.5784C11.8106 8.86722 12.002 9.05894 12 9.29349V11.5697C11.9796 11.8042 11.7882 11.9959 11.554 11.9959H8.64561C8.41139 11.9959 8.21995 11.8042 8.21995 11.5697V9.29349C8.21995 9.05894 8.41139 8.86722 8.64561 8.86722H9.68634V7.35794H4.29328V8.86722H5.35437C5.58859 8.86722 5.78003 9.05894 5.78003 9.29349V11.5737C5.75967 11.8083 5.56822 12 5.33401 12H2.42566C2.19145 12 2 11.8083 2 11.5737V9.29757C2 9.06302 2.19145 8.8713 2.42566 8.8713H3.44399V6.95819C3.44399 6.72364 3.63544 6.53192 3.86965 6.53192H6.56618V5.10626H5.52545C5.29124 5.10626 5.09979 4.91454 5.09979 4.67999V2.42627C5.09979 2.19172 5.29124 2 5.52545 2H8.4562C8.69042 2 8.88186 2.19172 8.88186 2.42627V4.69835C8.85946 4.9329 8.69042 5.10218 8.4562 5.10218H7.41547V6.52784H10.0916C10.3259 6.52784 10.5173 6.71956 10.5173 6.95411V8.86722Z" fill="#00A786"/>
</svg>
