<svg width="14" height="14" viewBox="0 0 14 14" fill="none" xmlns="http://www.w3.org/2000/svg">
<path d="M3.2083 8.4583C2.4039 8.4583 1.75 7.80386 1.75 7C1.75 6.19614 2.4039 5.5417 3.2083 5.5417C4.0128 5.5417 4.6667 6.19614 4.6667 7C4.6667 7.80386 4.0128 8.4583 3.2083 8.4583Z" fill="white"/>
<path d="M7 8.4583C6.1956 8.4583 5.5417 7.80386 5.5417 7C5.5417 6.19614 6.1956 5.5417 7 5.5417C7.8044 5.5417 8.4583 6.19614 8.4583 7C8.4583 7.80386 7.8044 8.4583 7 8.4583Z" fill="white"/>
<path d="M10.7917 8.4583C9.9872 8.4583 9.3333 7.80386 9.3333 7C9.3333 6.19614 9.9872 5.5417 10.7917 5.5417C11.5961 5.5417 12.25 6.19614 12.25 7C12.25 7.80386 11.5961 8.4583 10.7917 8.4583Z" fill="white"/>
</svg>
